<svg xmlns="http://www.w3.org/2000/svg" class="{{ with .class }}{{ . }} {{ end }} icon" width="24" height="24" fill-rule="evenodd" clip-rule="evenodd" image-rendering="optimizeQuality" shape-rendering="geometricPrecision" text-rendering="geometricPrecision" viewBox="0 0 512 539.7"><path fill-rule="nonzero" d="M510 119C502 61 451 16 390 7c-10-2-49-7-138-7h-1c-90 0-109 5-119 7C73 16 19 57 6 115c-6 29-7 61-6 91 2 42 2 84 6 126a588 588 0 0 0 14 83c13 50 63 92 112 109a303 303 0 0 0 164 8 245 245 0 0 0 17-5c13-4 29-8 40-16l1-1v-41a1 1 0 0 0-1-1 1 1 0 0 0-1 0 458 458 0 0 1-106 12c-61 0-78-29-83-41a126 126 0 0 1-7-32v-1a1 1 0 0 1 1 0h1a449 449 0 0 0 104 12h25c36-1 73-3 108-10h2c55-11 107-43 113-126v-38c1-11 4-81 0-125zm-85 207h-57V186c0-29-13-44-38-44-28 0-41 18-41 53v76h-58v-76c0-35-14-53-41-53-26 0-38 15-38 44v140H94V182c0-29 8-53 23-70 16-17 36-26 62-26 29 0 52 11 67 34l14 23 14-23c15-23 37-34 67-34 25 0 46 9 62 26 15 17 23 41 23 70l-1 144z"/></svg>